<svg version="1.1" xmlns="http://www.w3.org/2000/svg" style="display: block;" viewBox="0 0 2048 569" width="922" height="256" preserveAspectRatio="none">
<path transform="translate(0,0)" fill="rgb(200,200,241)" d="M 508.534 16.8308 L 509.739 16.9015 C 511.472 19.462 511.076 23.1881 511.16 26.283 C 512.153 63.0733 511.089 100.175 511.086 137.006 L 511.263 409.415 C 479.76 409.023 448.255 408.911 416.75 409.078 C 415.299 408.85 415.264 408.626 414.284 407.498 C 413.231 397.355 414.172 386.732 414.201 376.515 L 414.202 315.061 L 414.157 151.496 C 414.143 135.485 411.898 79.1721 415.579 67.7182 C 416.586 64.5834 500.324 21.231 508.534 16.8308 z"/>
<path transform="translate(0,0)" fill="rgb(200,200,241)" d="M 371.743 136.859 C 372.123 137.261 373.166 138.133 373.381 138.591 C 374.734 141.467 373.928 482.193 374.007 512.045 C 363.048 512.802 351.623 512.124 340.604 512.102 L 277.931 512.154 L 277.271 511.921 C 275.705 509.798 276.021 507.284 275.967 504.676 C 274.585 438.909 276.07 372.566 276.043 306.736 L 275.987 231.288 C 275.979 216.802 275.222 201.9 276.624 187.491 C 308.459 170.857 340.166 153.979 371.743 136.859 z"/>
<path transform="translate(0,0)" fill="currentColor" d="M 1370.86 183.235 C 1379.87 183.314 1389.83 181.792 1398.7 183.298 C 1400 183.518 1402.52 184.042 1403.56 184.795 C 1410.58 189.862 1494.59 305.519 1506.85 322.736 C 1507.79 306.524 1507.13 289.956 1507.11 273.707 L 1507.22 183.149 L 1539.89 183.165 C 1540.45 199.375 1540.66 375.546 1540.07 376.881 C 1539.55 378.055 1537.79 378.309 1536.61 378.745 C 1527.6 378.205 1518.43 378.549 1509.4 378.559 C 1499 371.404 1490.52 355.651 1482.98 345.53 C 1467.09 324.454 1451.35 303.255 1435.79 281.932 C 1425.29 267.678 1415.12 252.603 1403.34 239.412 C 1404.43 256.7 1403.88 274.311 1403.9 291.632 L 1403.96 378.728 C 1392.77 378.316 1381.64 378.909 1370.46 378.03 C 1368.66 350.672 1370.13 322.341 1370.14 294.891 C 1370.14 257.768 1369.05 220.306 1370.86 183.235 z"/>
<path transform="translate(0,0)" fill="currentColor" d="M 1126.71 183.304 C 1172.63 182.355 1218.73 183.164 1264.67 183.037 C 1264.98 184.392 1265.25 185.756 1265.47 187.129 C 1266.37 192.742 1268.03 207.263 1264.63 211.667 C 1262.4 214.561 1172.9 212.59 1159.29 213.986 C 1158.76 230.902 1158.72 247.83 1159.16 264.749 C 1190.7 265.353 1222.27 264.418 1253.81 265.12 C 1254.18 275.151 1254.6 285.13 1254.06 295.166 L 1161.75 295.237 L 1160.25 295.337 C 1157.34 299.678 1158.85 340.008 1158.88 348.203 C 1195.42 348.307 1231.96 348.197 1268.5 347.874 C 1268.87 358.146 1268.7 368.469 1268.72 378.748 C 1236.2 377.611 1203.35 378.306 1170.79 378.457 C 1155.8 378.526 1140.65 379.108 1125.69 378.174 C 1124.19 363.286 1124.33 189.504 1126.71 183.304 z"/>
<path transform="translate(0,0)" fill="currentColor" d="M 627.188 183.157 C 642.684 183.767 658.395 183.194 673.923 183.181 L 766.04 183.1 C 766.429 193.086 766.185 203.149 766.183 213.145 C 730.898 212.902 695.612 212.942 660.329 213.264 C 660.264 230.483 660.311 247.702 660.468 264.92 L 755.059 264.761 C 755.426 275.067 755.173 285.406 755.074 295.717 C 725.546 293.212 694.416 294.997 664.75 295.333 L 661.475 295.124 C 658.961 297.499 660.506 341.504 660.188 348.278 C 696.603 347.536 733.055 348.536 769.482 347.743 C 769.914 357.945 770.062 368.056 769.834 378.266 C 751.513 380.037 731.475 378.483 712.972 378.452 C 684.416 378.405 655.634 379.339 627.113 378.205 C 624.88 347.126 626.622 314.866 626.635 283.672 C 626.65 250.445 625.011 216.277 627.188 183.157 z"/>
<path transform="translate(0,0)" fill="currentColor" d="M 856.619 183.277 C 868.729 183.05 880.842 183.034 892.952 183.228 C 898.815 189.345 903.598 197.415 908.451 204.399 C 919.096 219.72 929.385 235.469 940.807 250.218 C 951.935 234.918 962.545 219.247 973.534 203.845 C 977.578 198.177 981.676 190.925 986.683 186.151 C 993.042 180.088 1018.21 183.115 1026.91 183.299 C 1018.04 198.47 966.284 265.81 964.191 275.996 C 966.348 287.752 1021.16 360.911 1032.51 377.939 C 1027.67 378.229 1022.78 378.234 1017.93 378.354 C 1009.91 378.582 1002 378.707 993.988 378.232 C 986.636 371.01 980.852 361.393 974.868 353.011 L 940.788 304.742 C 923.965 329.337 906.731 354.263 888.67 377.952 C 876.277 379.645 863.056 378.511 850.581 377.803 C 871.485 344.362 897.196 310.285 920.582 278.426 C 912.097 264.102 856.929 191.515 856.619 183.277 z"/>
<path transform="translate(0,0)" fill="currentColor" d="M 1734.81 182.408 C 1765.64 180.532 1789.44 192.917 1813.08 211.199 C 1808.3 220.173 1801.95 228.253 1795.2 235.826 C 1780.52 226.662 1770.53 216.954 1752.68 213.405 C 1735.1 209.909 1715.62 213.398 1700.71 223.5 C 1685.88 233.728 1675.67 249.379 1672.28 267.072 C 1668.89 285.077 1672.27 304.117 1682.66 319.305 C 1692.85 334.189 1708.13 343.715 1725.81 347.01 C 1746.78 350.917 1766.64 345.636 1784 333.81 L 1794.46 326.367 C 1801.59 332.129 1807.33 339.818 1813.14 346.867 C 1812.67 347.494 1812.18 348.106 1811.67 348.701 C 1796.98 366.128 1769.59 377.363 1747.19 379.179 C 1719.54 381.421 1692.99 374.412 1671.73 356.262 C 1652.49 339.831 1639.53 317.333 1637.55 291.894 C 1635.5 265.626 1641.01 239.209 1658.52 218.839 C 1679.07 194.944 1703.95 184.719 1734.81 182.408 z"/>
<path transform="translate(0,0)" fill="rgb(200,200,241)" d="M 232.269 0 L 234.997 0 C 236.119 21.5348 235.493 43.2604 235.479 64.8243 L 235.433 171.707 C 235.386 302.381 233.894 433.235 235.82 563.888 C 203.08 564.738 170.101 563.887 137.336 563.867 L 137.787 207.093 C 137.774 154.929 136.666 102.562 138.035 50.4331 C 144.28 45.6668 152.624 42.2308 159.58 38.4943 C 174.296 30.4836 189.061 22.5643 203.875 14.737 C 213.248 9.89283 223.375 5.65386 232.269 0 z"/>
<path transform="translate(0,0)" fill="rgb(200,200,241)" d="M 0 188.856 C 14.7907 178.377 32.4288 170.699 48.4439 162.244 C 64.7519 153.635 80.8134 143.957 97.5866 136.285 C 97.4731 250.554 95.1044 364.984 97.4377 479.238 C 75.2944 476.706 52.3032 477.985 30.0227 478.079 C 21.3575 478.116 8.04632 479.771 0 477.233 L 0 464.1 C 3.07707 450.277 1.1696 432.512 1.17993 418.191 L 1.21231 329.799 L 1.19694 242.888 C 1.18987 228.419 3.00503 210.964 0 196.904 L 0 188.856 z"/>
<path transform="translate(0,0)" fill="currentColor" d="M 2048 183.108 L 2048 213.237 C 2012.73 212.853 1977.46 212.899 1942.2 213.376 C 1941.99 230.509 1941.92 247.643 1941.99 264.776 C 1955.25 264.886 2030.15 263.208 2036.34 266.231 C 2039.76 273.768 2037.99 286.66 2037.82 294.98 C 2005.95 295.918 1973.89 295.015 1941.99 295.203 C 1941.96 312.881 1942.31 330.638 1941.88 348.306 C 1977.18 348.114 2012.72 347.262 2048 348.177 L 2048 378.495 C 2001.6 378.419 1954.9 379.624 1908.55 378.174 C 1907.47 360.499 1908.29 342.426 1908.32 324.709 L 1908.31 230.424 C 1908.33 214.916 1909.24 199.128 1908.04 183.671 C 1924.14 182.203 1941.04 183.151 1957.21 183.139 L 2048 183.108 z"/>
<path transform="translate(0,0)" fill="rgb(200,200,241)" fill-opacity="0.513725" d="M 0 196.904 C 3.00503 210.964 1.18987 228.419 1.19694 242.888 L 1.21231 329.799 L 1.17993 418.191 C 1.1696 432.512 3.07707 450.277 0 464.1 L 0 196.904 z"/>
</svg>